<svg xmlns="http://www.w3.org/2000/svg" viewBox="0 0 184 132" width="184" height="132">
	<style>
		tspan { white-space:pre }
		.shp0 { fill: #ffffff } 
	</style>
	<g >
		<path class="shp0" d="M2.57 -0.03C62.55 -0.04 122.53 -0.04 182.51 -0.03C175.79 6.52 169.23 13.22 162.47 19.74C154.25 27.71 146.23 35.87 138.01 43.84C133.34 48.49 128.52 53 123.96 57.75C115.79 65.78 107.56 73.76 99.45 81.84C95.32 85.4 88.23 85.27 84.5 81.2C57.15 54.16 29.91 27.02 2.57 -0.03L2.57 -0.03Z" />
		<path class="shp0" d="M0.52 125.8C0.54 86.51 0.54 47.23 0.52 7.94C20.27 27.39 37.42 45.41 57.1 64.92C38.05 85.54 19.27 105.53 0.52 125.8L0.52 125.8Z" />
		<path class="shp0" d="M183.48 126.26C183.46 86.98 183.46 47.69 183.48 8.4C163.73 27.86 146.58 45.87 126.9 65.38C145.95 86 164.73 105.99 183.48 126.26L183.48 126.26Z" />
		<path class="shp0" d="M3.26 132.03L61.89 69.57C66.09 73.57 74.24 80.92 78.49 84.87C88.47 93.76 98.07 93.63 107.8 84.44C111.67 80.64 118.66 73.75 122.54 69.95L179.54 132.03C119.95 132.04 62.85 132.04 3.26 132.03L3.26 132.03Z" />
	</g>
</svg>