<svg xmlns="http://www.w3.org/2000/svg" viewBox="0 0 58 61" width="58" height="61">
	<style>
		tspan { white-space:pre }
		.shp0 { fill: #f4c3d6 } 
		.shp1 { fill: none;stroke: #ffffff } 
	</style>
	<path fill-rule="evenodd" class="shp0" d="M57.42 30.32C57.42 46.82 44.71 60.26 28.98 60.26C13.24 60.26 0.54 46.82 0.54 30.32C0.54 13.81 13.24 0.38 28.98 0.38C44.71 0.38 57.42 13.81 57.42 30.32ZM28.98 59.01C43.96 59.01 56.17 46.19 56.17 30.32C56.17 14.44 43.96 1.63 28.98 1.63C13.99 1.63 1.79 14.44 1.79 30.32C1.79 46.19 13.99 59.01 28.98 59.01ZM27.26 42.32C24.74 45.22 20.66 45.22 18.15 42.32C15.63 39.42 15.63 34.72 18.15 31.82L29.08 19.22C29.25 19.03 29.49 18.96 29.71 19.02C29.93 19.09 30.11 19.29 30.17 19.55C30.23 19.81 30.16 20.09 30 20.27L19.06 32.87C17.03 35.21 17.03 38.93 19.06 41.27C21.09 43.6 24.32 43.6 26.35 41.27L38.65 27.1C39.92 25.63 39.92 23.31 38.65 21.85C37.38 20.39 35.37 20.39 34.1 21.85L21.79 36.02C21.28 36.61 21.28 37.53 21.79 38.12C22.31 38.71 23.1 38.71 23.62 38.12L34.55 25.52C34.71 25.33 34.95 25.25 35.18 25.32C35.4 25.39 35.58 25.59 35.64 25.85C35.7 26.11 35.63 26.39 35.46 26.57L24.53 39.17C23.52 40.32 21.88 40.32 20.88 39.17C19.88 38.01 19.88 36.12 20.88 34.97L33.19 20.8C34.94 18.77 37.81 18.77 39.56 20.8C41.32 22.83 41.32 26.12 39.56 28.15L27.26 42.32Z" />
	<path class="shp1" d="M29 60C13.52 60 1 46.81 1 30.5C1 14.19 13.52 1 29 1C44.48 1 57 14.19 57 30.5C57 46.81 44.48 60 29 60Z" />
</svg>