<svg id="Layer_1" data-name="Layer 1" xmlns="http://www.w3.org/2000/svg" viewBox="0 0 516.02 69.27"><defs><style>.cls-1{fill:#fff;}</style></defs><path class="cls-1" d="M28.76,13.2V50.6h-9V13.2h-15v-7H43.8v7Z"/><path class="cls-1" d="M90,50.6H80.09L67.8,32.9H62.24V50.6h-9V6.16H70.69c10.52,0,15,6.22,15,13.41,0,6-3.18,10.74-8.88,12.37ZM62.24,26.53h7c5.63,0,7.63-3,7.63-6.89s-2-7-7.63-7h-7Z"/><path class="cls-1" d="M131.36,50.6l-4.52-11h-18l-4.52,11H95.58L114.47,6.16h7L140.39,50.6ZM117.87,17.2l-6.59,16.15h13.11Z"/><path class="cls-1" d="M181,50.6,157.73,21.27V50.6h-8.08V6.16H156l23.26,29.33V6.16h8.07V50.6Z"/><path class="cls-1" d="M214,51.49a23.8,23.8,0,0,1-15.77-5.55l2.07-7.11c3,2.81,7.63,6,13.7,6,4.45,0,7.85-2.23,7.85-6.15,0-3.71-2.07-5.63-9.33-7.41-9.33-2.3-13-7.26-13-13.63,0-7.26,5.77-12.51,15.33-12.51A22.47,22.47,0,0,1,228.1,9.5l-1.93,6.29a22.4,22.4,0,0,0-11.48-3.85c-4.37,0-7,1.92-7,5.11,0,2.59,1.56,4.59,7.63,6.07,10.37,2.6,14.81,7,14.81,14.67C230.17,47.34,222.32,51.49,214,51.49Z"/><path class="cls-1" d="M261.73,51.57c-12,0-22.07-8.6-22.07-23.11S249.73,5.2,261.73,5.2A25.84,25.84,0,0,1,275.8,9.42V12a23.43,23.43,0,0,0-14.07-4.44c-11.18,0-19.55,8.07-19.55,20.89s8.37,20.74,19.55,20.74a23.4,23.4,0,0,0,14.07-4.37v2.59C272.32,49.94,266.69,51.57,261.73,51.57Z"/><path class="cls-1" d="M285.36,50.6V6.16h2.52V48.31H309V50.6Z"/><path class="cls-1" d="M316.18,50.6V6.16h2.52V50.6Z"/><path class="cls-1" d="M360.25,50.6l-27.7-39.4V50.6h-2.44V6.16H332l27.7,39.41V6.16h2.44V50.6Z"/><path class="cls-1" d="M373.51,50.6V6.16H376V50.6Z"/><path class="cls-1" d="M413.36,56.23c2.82,5.33,5.56,6.89,9.56,6.89a7.51,7.51,0,0,0,1.92-.22v2.15a11.12,11.12,0,0,1-2.74.37c-4.66,0-8.14-2.67-11.11-8.45l-2.74-5.33h-.66c-12.67,0-22.3-9.41-22.3-23.26s9.63-23.25,22.3-23.25,22.29,9.48,22.29,23.25c0,12.59-8.07,21.56-19,23ZM407.59,7.5c-11.19,0-19.78,8.07-19.78,20.88s8.59,20.89,19.78,20.89c11,0,19.77-8.07,19.77-20.89S418.62,7.5,407.59,7.5Z"/><path class="cls-1" d="M456.7,51.64c-10.59,0-17.63-6.74-17.63-21.63V6.16h2.52V30.09c0,13.33,6.15,19.18,15.11,19.18s15.11-5.85,15.11-19.18V6.16h2.52V30C474.33,44.9,467.36,51.64,456.7,51.64Z"/><path class="cls-1" d="M485.66,50.6V6.16h23.63v2.3H488.18V26.09h17.41v2.29H488.18V48.31h21.11V50.6Z"/></svg>