<svg xmlns="http://www.w3.org/2000/svg" viewBox="0 0 470 469" width="470" height="469">
	<style>
		tspan { white-space:pre }
		.shp0 { fill: #ffffff } 
	</style>
	<path fill-rule="evenodd" class="shp0" d="M238.96 0.3C292.86 0.55 329.31 1.13 337.5 1.86C344.65 2.51 355.45 3.95 361.5 5.08C367.55 6.21 376.55 8.48 381.5 10.12C386.45 11.77 394.55 15.16 399.5 17.65C404.45 20.14 411.43 24.27 415 26.83C418.57 29.39 425.13 35.08 429.57 39.49C434 43.9 440 50.88 442.91 55C445.81 59.13 449.78 65.65 451.73 69.5C453.68 73.35 456.38 79.42 457.72 83C459.07 86.58 461.25 94 462.57 99.5C463.9 105 465.45 113.1 466.02 117.5C466.59 121.9 467.71 137.65 468.52 152.5C469.45 169.73 469.98 199.23 469.98 234C469.98 268.4 469.44 298.64 468.52 316C467.72 331.13 466.6 347.1 466.02 351.5C465.45 355.9 463.9 364 462.57 369.5C461.25 375 459.07 382.43 457.72 386C456.38 389.57 453.68 395.65 451.73 399.5C449.78 403.35 445.81 409.88 442.92 414C440.02 418.13 433.78 425.32 429.05 430C424.32 434.68 416.64 441.03 411.98 444.11C407.32 447.2 400.57 451.08 397 452.73C393.43 454.39 387.13 456.95 383 458.43C378.88 459.9 370.1 462.19 363.5 463.51C356.9 464.83 343.85 466.49 334.5 467.2C322.5 468.12 293.25 468.5 235 468.5C176.75 468.5 147.5 468.12 135.5 467.2C126.15 466.49 113.1 464.83 106.5 463.51C99.9 462.19 91.13 459.92 87 458.46C82.88 457 75.45 453.78 70.5 451.31C65.55 448.84 58.58 444.73 55 442.17C51.42 439.61 44.87 433.92 40.43 429.51C36 425.1 30 418.13 27.09 414C24.19 409.88 20.22 403.35 18.27 399.5C16.32 395.65 13.62 389.57 12.28 386C10.93 382.43 8.75 375 7.43 369.5C6.1 364 4.55 355.9 3.98 351.5C3.41 347.1 2.29 331.35 1.48 316.5C0.55 299.27 0.02 269.77 0.02 235C0.02 200.6 0.56 170.36 1.48 153C2.28 137.88 3.4 121.9 3.98 117.5C4.55 113.1 6.1 105 7.43 99.5C8.75 94 10.93 86.58 12.28 83C13.62 79.42 16.32 73.35 18.27 69.5C20.22 65.65 24.19 59.13 27.09 55C30 50.88 36 43.9 40.43 39.49C44.87 35.08 51.42 29.39 55 26.83C58.58 24.27 65.55 20.16 70.5 17.69C75.45 15.22 82.88 12 87 10.54C91.13 9.08 99.9 6.81 106.5 5.49C113.1 4.17 126.15 2.57 135.5 1.93C144.85 1.29 152.71 0.58 152.96 0.34C153.22 0.1 191.92 0.08 238.96 0.3ZM120.75 45.43C115.39 46.29 107.29 48.18 102.75 49.62C98.21 51.06 92.03 53.47 89 54.99C85.97 56.5 79.95 60.61 75.6 64.12C71.26 67.63 65.54 73.42 62.89 77C60.24 80.58 56.86 85.97 55.38 89C53.91 92.03 51.64 97.65 50.33 101.5C49.03 105.35 47.26 112.55 46.41 117.5C45.55 122.45 44.45 134.15 43.95 143.5C43.45 152.85 43.05 193.8 43.05 234.5C43.05 275.2 43.45 316.15 43.95 325.5C44.45 334.85 45.55 346.55 46.41 351.5C47.26 356.45 49.03 363.65 50.33 367.5C51.64 371.35 53.91 376.98 55.38 380C56.86 383.02 60.24 388.43 62.89 392C65.54 395.57 71.26 401.37 75.6 404.88C79.95 408.39 85.97 412.5 89 414.01C92.03 415.53 98.21 417.94 102.75 419.38C107.29 420.82 115.16 422.67 120.25 423.49C125.34 424.32 141.2 425.43 155.5 425.97C169.8 426.52 205.57 426.96 235 426.96C264.43 426.96 300.2 426.52 314.5 425.97C328.8 425.43 344.66 424.32 349.75 423.49C354.84 422.67 362.71 420.82 367.25 419.38C371.79 417.94 377.98 415.53 381 414.01C384.02 412.5 390.05 408.39 394.4 404.88C398.74 401.37 404.46 395.57 407.11 392C409.76 388.43 413.14 383.02 414.62 380C416.09 376.98 418.36 371.35 419.67 367.5C420.97 363.65 422.74 356.45 423.59 351.5C424.45 346.55 425.55 334.85 426.05 325.5C426.55 316.15 426.95 275.2 426.95 234.5C426.95 193.8 426.55 152.85 426.05 143.5C425.55 134.15 424.45 122.45 423.59 117.5C422.74 112.55 420.97 105.35 419.67 101.5C418.36 97.65 416.09 92.03 414.62 89C413.14 85.97 409.76 80.58 407.11 77C404.46 73.42 398.74 67.63 394.4 64.12C390.05 60.61 384.02 56.5 381 54.99C377.98 53.47 371.79 51.06 367.25 49.62C362.71 48.18 354.84 46.33 349.75 45.51C344.66 44.68 328.8 43.57 314.5 43.03C300.2 42.48 262.4 42.1 230.5 42.17C198.6 42.25 163.05 42.66 151.5 43.08C139.95 43.51 126.11 44.57 120.75 45.43ZM360 82.09C364.8 82.04 367.81 82.63 371.5 84.34C374.39 85.68 378.32 88.74 380.81 91.58C383.64 94.81 385.67 98.39 386.69 102C387.6 105.22 388.04 109.37 387.74 112C387.46 114.47 386.36 118.53 385.3 121C384.24 123.47 381.6 127.27 379.44 129.44C377.27 131.6 373.48 134.28 371 135.4C368 136.75 364.33 137.44 360 137.47C354.97 137.49 352.25 136.9 348 134.85C344.94 133.38 340.83 130.27 338.73 127.85C336.66 125.46 334.29 121.47 333.47 119C332.65 116.53 331.98 112.14 331.99 109.25C331.99 106.36 332.7 102.31 333.55 100.25C334.4 98.19 336.31 94.77 337.8 92.65C339.28 90.53 342.05 87.83 343.95 86.65C345.85 85.47 348.78 83.97 350.45 83.33C352.13 82.68 356.43 82.12 360 82.09ZM239.5 114.61C245.55 114.88 253.88 115.75 258 116.55C262.13 117.35 268.43 118.97 272 120.15C275.57 121.34 281.88 123.84 286 125.72C290.13 127.59 297.32 131.68 302 134.79C306.68 137.91 314.58 144.52 319.57 149.48C324.57 154.44 330.92 161.88 333.69 166C336.46 170.13 340.36 176.76 342.36 180.75C344.36 184.74 347.33 191.94 348.95 196.75C350.58 201.56 352.6 209.78 353.45 215C354.3 220.22 354.99 229 354.99 234.5C354.99 240 354.3 248.78 353.45 254C352.6 259.23 350.54 267.55 348.88 272.5C347.22 277.45 343.87 285.32 341.44 290C339.02 294.68 334.16 302.32 330.66 307C327.16 311.68 321.19 318.36 317.39 321.86C313.6 325.36 307.8 330.16 304.5 332.52C301.2 334.88 295.13 338.62 291 340.82C286.88 343.03 279.68 346.18 275 347.82C270.32 349.46 262.45 351.6 257.5 352.58C251.59 353.74 243.87 354.35 235 354.35C226.13 354.35 218.41 353.74 212.5 352.58C207.55 351.6 199.68 349.46 195 347.82C190.32 346.18 183.13 343.03 179 340.82C174.88 338.62 168.8 334.89 165.5 332.54C162.2 330.19 156.13 325.12 152 321.28C147.88 317.43 141.64 310.29 138.15 305.39C134.65 300.5 130.04 293.01 127.9 288.75C125.75 284.49 122.67 277.06 121.05 272.25C119.42 267.44 117.4 259.23 116.55 254C115.7 248.78 115.01 240 115.01 234.5C115.01 229 115.7 220.22 116.55 215C117.4 209.78 119.42 201.56 121.05 196.75C122.67 191.94 125.64 184.74 127.64 180.75C129.64 176.76 133.39 170.35 135.98 166.5C138.57 162.65 143.35 156.63 146.59 153.12C149.84 149.6 155.88 144.03 160 140.74C164.13 137.44 170.43 133.02 174 130.9C177.57 128.78 184.32 125.48 189 123.55C193.68 121.63 201.1 119.15 205.5 118.03C209.9 116.91 216.88 115.57 221 115.06C225.13 114.54 233.45 114.34 239.5 114.61ZM205 162.32C200.88 164.1 194.81 167.35 191.52 169.53C188.23 171.71 183.01 175.97 179.91 179C176.82 182.03 172.25 187.65 169.75 191.5C167.25 195.35 164.05 201.43 162.63 205C161.2 208.57 159.36 214.43 158.54 218C157.71 221.57 157.03 229 157.03 234.5C157.03 240 157.71 247.43 158.54 251C159.36 254.57 161.2 260.43 162.63 264C164.05 267.57 167.25 273.65 169.75 277.5C172.25 281.35 176.82 286.98 179.91 290C183.01 293.02 188.23 297.29 191.52 299.47C194.81 301.65 200.88 304.89 205 306.67C209.13 308.45 216.55 310.61 221.5 311.47C226.45 312.32 232.53 313.02 235 313.02C237.47 313.02 243.55 312.32 248.5 311.47C253.45 310.61 260.88 308.45 265 306.67C269.13 304.89 275.19 301.65 278.48 299.47C281.77 297.29 286.99 293.02 290.09 290C293.18 286.98 297.75 281.35 300.25 277.5C302.75 273.65 305.95 267.57 307.37 264C308.8 260.43 310.64 254.57 311.46 251C312.29 247.43 312.97 240 312.97 234.5C312.97 229 312.29 221.57 311.46 218C310.64 214.43 308.8 208.57 307.37 205C305.95 201.43 302.75 195.35 300.25 191.5C297.75 187.65 293.18 182.03 290.09 179C286.99 175.97 281.77 171.71 278.48 169.53C275.19 167.35 269.13 164.11 265 162.33C260.88 160.55 253.45 158.39 248.5 157.53C243.55 156.68 237.03 156.02 234 156.08C230.97 156.13 224.9 156.83 220.5 157.63C216.1 158.42 209.13 160.53 205 162.32Z" />
</svg>