<?xml version="1.0" encoding="utf-8"?>
<!-- Generator: Adobe Illustrator 24.1.0, SVG Export Plug-In . SVG Version: 6.00 Build 0)  -->
<svg version="1.1" id="Layer_1" xmlns="http://www.w3.org/2000/svg" xmlns:xlink="http://www.w3.org/1999/xlink" x="0px" y="0px"
	 viewBox="0 0 110.2 104.9" style="enable-background:new 0 0 110.2 104.9;" xml:space="preserve">
<style type="text/css">
	.st0{fill:#FFFFFF;}
</style>
<g>
	<g>
		<path class="st0" d="M40.3,90.7l-2.8,6.6l-1.6-0.7l2.8-6.6l-2.6-1.1l0.5-1.2l6.9,3L43,91.8L40.3,90.7z"/>
		<path class="st0" d="M50.1,100.7l-1.9-0.4l-1.6-3.8l-1-0.2l-0.7,3.3l-1.7-0.3l1.7-8.4l3.3,0.7c2,0.4,2.6,1.7,2.3,3.1
			c-0.2,1.1-1,1.9-2.1,2L50.1,100.7z M45.8,95.1l1.3,0.3c1.1,0.2,1.5-0.3,1.7-1c0.2-0.8-0.1-1.4-1.2-1.6l-1.3-0.3L45.8,95.1z"/>
		<path class="st0" d="M59.4,100.8l-0.9-2.1l-3.5,0.1l-0.8,2.1l-1.7,0l3.5-8.6l1.4,0l3.8,8.5L59.4,100.8z M56.7,94.5l-1.2,3.1l2.5,0
			L56.7,94.5z"/>
		<path class="st0" d="M70.2,98.8l-5.7-4.4l1.4,5.5l-1.5,0.4L62.2,92l1.2-0.3l5.7,4.4l-1.4-5.5l1.5-0.4l2.1,8.3L70.2,98.8z"/>
		<path class="st0" d="M77.3,96.1c-1.3,0.6-2.4,0.6-3.2,0.4l-0.2-1.4c0.8,0.2,1.8,0.4,2.9-0.1c0.8-0.4,1.2-1.1,0.8-1.7
			c-0.3-0.6-0.8-0.8-2.2-0.5c-1.8,0.4-2.9-0.1-3.4-1.2c-0.6-1.2-0.1-2.6,1.6-3.5c0.9-0.5,2-0.5,2.7-0.4l0.2,1.2
			c-0.7-0.1-1.6,0-2.3,0.3c-0.8,0.4-1,0.9-0.8,1.5c0.2,0.4,0.7,0.7,1.8,0.4c2-0.4,3.1-0.1,3.8,1.3C79.7,94,78.7,95.3,77.3,96.1z"/>
		<path class="st0" d="M86.1,90.5c-1.8,1.4-4.4,1.3-6.1-0.9c-1.7-2.2-1.2-4.7,0.6-6.1c0.8-0.6,1.8-1,2.6-1l0.3,0.4
			c-0.8,0-1.8,0.3-2.7,1c-1.7,1.3-2,3.5-0.5,5.5c1.5,1.9,3.7,2.2,5.4,0.9c0.9-0.7,1.4-1.5,1.6-2.3l0.3,0.4
			C87.6,89,86.9,89.9,86.1,90.5z"/>
		<path class="st0" d="M90.2,86.7l-6.3-5.8l0.3-0.4l5.9,5.5l2.7-3l0.3,0.3L90.2,86.7z"/>
		<path class="st0" d="M94.4,81.7l-6.8-5.1l0.3-0.4l6.8,5.1L94.4,81.7z"/>
		<path class="st0" d="M99.4,73.8l-9.2,0.9l6.6,3.7l-0.2,0.4l-7.4-4.2l0.2-0.3l9.2-0.9l-6.6-3.7l0.2-0.4l7.4,4.2L99.4,73.8z"/>
		<path class="st0" d="M100.7,70.7l-7.9-3.2l0.2-0.4l7.9,3.2L100.7,70.7z"/>
		<path class="st0" d="M104.2,62.8c1.1-0.3,1.5-0.7,1.7-1.5c0-0.1,0-0.3,0-0.4l0.4,0.1c0,0.2,0,0.3-0.1,0.5
			c-0.2,0.9-0.9,1.4-2.1,1.7l-1.1,0.3l0,0.1c-0.6,2.4-2.7,3.8-5.3,3.1c-2.6-0.6-3.9-2.8-3.4-5.2c0.6-2.4,2.8-3.8,5.3-3.1
			c2.4,0.6,3.7,2.5,3.5,4.6L104.2,62.8z M94.9,61.7c-0.5,2.1,0.6,4.1,3,4.6c2.4,0.6,4.3-0.7,4.8-2.8c0.5-2.1-0.6-4.1-3-4.6
			C97.3,58.4,95.4,59.7,94.9,61.7z"/>
		<path class="st0" d="M104.4,52.8c0,2-1.3,3.4-4.2,3.3l-4.6-0.1l0-0.5l4.6,0.1c2.6,0,3.7-1.1,3.7-2.8c0-1.7-1.1-2.9-3.6-3l-4.6-0.1
			l0-0.5l4.6,0.1C103.2,49.4,104.5,50.7,104.4,52.8z"/>
		<path class="st0" d="M103.9,46.2l-8.4,1.5l-0.8-4.5l0.4-0.1l0.7,4l3.3-0.6l-0.6-3.3l0.4-0.1l0.6,3.3l3.8-0.7l-0.7-4l0.4-0.1
			L103.9,46.2z"/>
	</g>
	<g>
		<path class="st0" d="M9.4,52.5C9.4,39.6,14.6,28,23,19.6C31.4,11.2,43,6,55.8,6V2.2C28.1,2.2,5.5,24.7,5.5,52.5H9.4L9.4,52.5z"/>
	</g>
	<path class="st0" d="M32.3,25.4v10.3h4.1v-3.1l3.1,3.1l-3.1,3.1l3.1,3.1l3.1-3.1l1,1c-7.3,9.4-1.7,22.6,9.6,24.4l0,5.3h-5.9v4.6
		h5.9v5.4h4.6v-5.4h5.9v-4.6h-5.9v-5.4c11.8-1.9,16.6-15.5,9.6-24.3l7.2-7.2v6.7h4.1V25.4H64.8v4.1h6.7l-7.3,7.3
		c-4.8-3.6-12.6-3.7-17.4,0l-1.1-1.1l3.1-3.1l-3.1-3.1l-3.1,3.1l-3.1-3.1h3.1v-4.1H32.3z M55.5,38.3c14.6,0.7,14.1,21.2,0,21.7
		C40.9,59.3,41.4,38.9,55.5,38.3L55.5,38.3z"/>
</g>
</svg>
